<?xml version="1.0" standalone="no"?>
<!DOCTYPE svg PUBLIC "-//W3C//DTD SVG 20010904//EN"
 "http://www.w3.org/TR/2001/REC-SVG-20010904/DTD/svg10.dtd">
<svg version="1.0" xmlns="http://www.w3.org/2000/svg"
 width="260.000000pt" height="260.000000pt" viewBox="0 0 260.000000 260.000000"
 preserveAspectRatio="xMidYMid meet">
<metadata>
Created by potrace 1.11, written by Peter Selinger 2001-2013
</metadata>
<g transform="translate(0.000000,260.000000) scale(0.100000,-0.100000)"
fill="#000000" stroke="none">
<path d="M1105 2525 c-187 -34 -364 -105 -512 -207 -163 -112 -343 -325 -422
-500 -151 -339 -151 -717 0 -1056 48 -106 155 -258 248 -352 481 -484 1252
-496 1746 -28 191 180 316 405 372 671 24 114 24 361 -1 475 -113 525 -513
913 -1028 997 -111 18 -306 18 -403 0z m-341 -413 c3 -5 -16 -25 -43 -45 -53
-41 -145 -135 -180 -184 l-22 -33 225 0 226 0 0 30 0 30 101 0 102 0 -6 49 -6
49 37 15 c34 14 38 13 44 -2 10 -24 9 -229 -1 -235 -5 -3 -25 5 -45 19 l-37
25 -328 0 c-283 0 -330 -2 -335 -15 -6 -18 -10 -18 392 -15 l283 2 49 -32 c46
-29 50 -35 50 -70 0 -51 -18 -61 -22 -13 -2 30 -10 42 -37 60 l-34 23 -356 -2
-356 -3 -26 -55 c-20 -42 -29 -51 -34 -38 -10 25 63 159 139 254 55 70 187
193 208 194 4 0 9 -4 12 -8z m1161 -42 c106 -85 197 -201 260 -332 24 -50 31
-74 23 -77 -7 -2 -14 0 -15 5 -2 5 -14 29 -26 54 l-22 45 -348 3 c-332 2 -349
1 -387 -18 -37 -19 -40 -24 -40 -61 0 -24 -4 -38 -10 -34 -5 3 -10 24 -10 45
0 34 5 43 38 66 34 24 35 26 10 20 l-28 -6 0 130 c0 71 2 130 5 130 3 0 21 -7
40 -14 33 -14 35 -17 35 -65 l0 -51 100 0 100 0 0 -30 0 -30 220 0 221 0 -29
43 c-33 46 -151 163 -194 191 -15 10 -25 22 -22 27 8 14 12 12 79 -41z m-766
-336 c28 -6 31 -10 31 -45 0 -23 -5 -39 -12 -39 -6 0 -95 -11 -197 -25 -235
-32 -441 -53 -441 -45 0 7 146 131 174 147 22 13 386 19 445 7z m778 -32 c26
-22 70 -59 97 -84 l49 -44 -89 8 c-49 5 -192 22 -319 38 -126 17 -233 30 -237
30 -5 0 -8 18 -8 39 0 49 -9 48 257 50 l201 1 49 -38z m-242 -282 l29 -30 -30
0 c-21 0 -40 10 -59 30 l-29 30 30 0 c21 0 40 -10 59 -30z m-1217 -87 c3 -23
2 -23 -117 -23 l-121 0 0 25 0 26 118 -3 c113 -3 117 -4 120 -25z m290 -16
c35 -35 37 -41 37 -101 0 -55 -4 -68 -25 -91 -41 -44 -77 -58 -137 -53 -58 5
-92 29 -120 82 -24 45 -13 120 23 158 40 41 59 48 127 45 52 -3 62 -7 95 -40z
m357 -102 c0 -138 0 -140 -22 -143 -23 -3 -23 -3 -23 143 0 146 0 146 23 143
22 -3 22 -5 22 -143z m386 119 c31 -32 29 -92 -6 -121 -34 -30 -100 -32 -115
-4 -15 29 -14 30 43 33 50 3 52 4 52 33 l0 30 -67 3 -68 3 0 -121 c0 -113 -1
-120 -20 -120 -19 0 -20 7 -20 146 l0 146 90 -4 c75 -2 93 -6 111 -24z m279 1
c0 -24 -2 -25 -75 -25 l-75 0 0 -95 0 -95 85 0 c84 0 85 0 85 -25 l0 -25 -110
0 -110 0 0 138 c0 76 3 142 7 145 3 4 48 7 100 7 93 0 93 0 93 -25z m297 -9
c32 -38 27 -91 -13 -122 l-26 -21 26 -51 c32 -62 32 -62 3 -62 -19 0 -29 12
-52 60 -19 40 -35 60 -46 60 -10 0 -23 9 -29 20 -10 19 -8 20 38 20 55 0 75
15 70 52 -3 21 -8 23 -75 26 l-73 3 0 -121 c0 -113 -1 -120 -20 -120 -19 0
-20 7 -20 146 l0 146 96 -4 c92 -3 97 -4 121 -32z m273 9 c0 -24 -2 -25 -75
-25 l-75 0 0 -95 0 -95 85 0 c84 0 85 0 85 -25 l0 -25 -110 0 -110 0 0 138 c0
76 3 142 7 145 3 4 48 7 100 7 93 0 93 0 93 -25z m-1381 -75 c51 -61 71 -93
71 -113 0 -16 -4 -27 -9 -25 -5 2 -33 32 -62 68 l-54 64 -3 -92 c-2 -84 -5
-92 -22 -92 -19 0 -20 7 -20 118 0 92 -4 123 -16 140 -16 23 -16 23 14 20 23
-2 45 -21 101 -88z m-599 -85 c0 -98 -1 -105 -20 -105 -19 0 -20 7 -20 115 0
113 1 115 20 105 18 -10 20 -21 20 -115z m1390 45 c0 -17 -7 -20 -45 -20 -34
0 -47 5 -55 20 -10 19 -8 20 45 20 48 0 55 -2 55 -20z m570 0 c0 -17 -7 -20
-45 -20 -34 0 -47 5 -55 20 -10 19 -8 20 45 20 48 0 55 -2 55 -20z m-1854
-392 c15 -24 40 -60 56 -80 l30 -38 309 0 c259 0 311 2 315 14 3 8 19 19 35
25 l29 10 0 -114 0 -114 -47 14 c-27 8 -51 15 -55 15 -5 0 -8 11 -8 25 l0 25
-241 0 -241 0 48 -41 c27 -22 68 -52 92 -66 23 -14 40 -29 36 -34 -16 -27
-202 115 -286 218 -52 64 -118 162 -118 177 0 19 23 1 46 -36z m1680 25 c-17
-44 -108 -165 -171 -228 -80 -80 -212 -172 -226 -158 -5 5 16 25 54 51 34 23
76 53 92 67 l30 25 -225 -2 c-225 -3 -225 -3 -228 -25 -2 -13 -6 -23 -10 -23
-4 0 -28 -7 -54 -15 l-48 -14 0 114 0 114 29 -10 c16 -6 32 -17 35 -25 4 -12
54 -14 299 -14 336 0 300 -10 371 103 34 53 66 79 52 40z"/>
<path d="M990 1870 c0 -18 7 -20 85 -20 78 0 85 2 85 20 0 18 -7 20 -85 20
-78 0 -85 -2 -85 -20z"/>
<path d="M1460 1870 c0 -18 7 -20 85 -20 78 0 85 2 85 20 0 18 -7 20 -85 20
-78 0 -85 -2 -85 -20z"/>
<path d="M1445 1819 c-4 -6 -5 -12 -3 -14 3 -3 488 -8 620 -6 47 1 56 4 52 16
-5 13 -52 15 -334 15 -222 0 -331 -3 -335 -11z"/>
<path d="M620 1313 c-80 -32 -91 -139 -18 -183 39 -24 69 -25 108 -5 62 32 76
117 26 164 -24 23 -87 36 -116 24z m57 -89 c3 -8 1 -20 -5 -26 -15 -15 -43 8
-35 28 7 19 32 18 40 -2z"/>
<path d="M620 655 l23 -25 248 0 247 0 4 25 5 25 -275 0 -275 0 23 -25z"/>
<path d="M1500 671 c0 -40 3 -41 239 -41 l228 0 23 25 23 25 -256 0 c-150 0
-257 -4 -257 -9z"/>
</g>
</svg>
