<svg version="1" xmlns="http://www.w3.org/2000/svg" width="346.667" height="346.667" viewBox="0 0 260.000000 260.000000"><path d="M107.5 2.6c-50.3 8.9-90.4 46.3-103.1 96C-5 136 2.8 175.1 26.1 207.1c6.4 8.7 21.6 23.3 30.9 29.6 15.5 10.4 34.1 17.8 52.5 20.9 15.3 2.5 36.4 1.5 51.5-2.4 23.5-6.1 43.2-17.3 60-34.2 18.4-18.5 30-39.9 35.6-66.2 2.5-11.7 2.6-38.1.1-49.6-3.9-17.9-9.9-32.4-19.2-46.3-20-30-50.9-50.3-85.9-56.4-11-1.9-33.1-1.8-44.1.1zM75.3 44.5c.4.9-.9 2.6-3.6 4.6C65.3 54 57.3 62 53.3 67.3c-2.6 3.6-3.4 5.4-2.9 7.2.6 2.5.7 2.5 12 2.5 9.6 0 11.5-.3 12-1.6.4-.9.1-2.3-.5-3-2.4-2.9.3-3.4 19.1-3.4h18.8l.8-3.3c.4-1.7.6-4.8.5-6.7-.2-3.4 0-3.6 4.6-5.3 2.6-.9 5.1-1.7 5.6-1.7.4 0 .7 7.9.7 17.5v17.6l-2.9-1.5c-2.9-1.5-4.1-3.4-4.1-6.4 0-.8-1-2.6-2.2-3.9-1.9-2.1-3-2.3-11.5-2.3h-9.4l.3 2.7c.3 2.4 2.3 3.8 16.3 11.3l16 8.7.3 7.5.3 7.6-8.8 5.8c-33.7 22-56.1 35.7-57.6 35.1-.7-.2-5.4-6.6-10.5-14.2-7.4-11-9-14-8.1-15.1 1.7-2 3-.6 11.9 12.5 4.1 6.1 8 11.1 8.5 11.1 1.9-.1 9-5.6 9.3-7.3.2-.9-.7-3.8-1.9-6.4-1.3-2.6-2.3-5.2-2.3-5.6-.1-.9 8.4-4.5 18.1-7.8 6.3-2.1 9-3.9 5.6-3.8-1 0-4.9.5-8.8 1.2-3.8.7-8.8 1.2-10.9 1.2h-3.9l-4.1-12.2c-2.2-6.7-3.7-12.5-3.4-12.8.3-.4 12.4 1.4 26.8 3.9 14.5 2.5 26.7 4.6 27.1 4.6.5 0 .9 1.3.9 2.8 0 2.1-.7 3.2-2.5 4-3 1.4-3.2 2.8-.7 4.1 1.4.7 3 .5 6-1.1 4.1-2 4.2-2.1 4.2-7.2v-5.1l-16.4-8.8L89.3 81H44l-2.8 5.7c-1.5 3.2-3.5 5.9-4.5 6.1-2.8.6-2.1-3.1 2.2-11.6 6.5-13 16.2-24.7 27.9-34 5.7-4.5 7.6-5.1 8.5-2.7zm119 4.5c8.3 6.6 16.6 16.3 22.4 26 4.8 8 8.6 16.7 7.8 18-1.5 2.4-3.5.6-6.4-5.5l-3-6.5h-45.4l-16.4 8.7-16.3 8.7v5.3c0 5.1.1 5.4 3.6 7 2.5 1.3 4 1.4 5.1.7 2.5-1.6 2.6-3.2.4-3.9-1.5-.4-2.1-1.5-2.1-3.6 0-1.6.4-2.9.9-2.9.4 0 12.6-2.1 27.1-4.6 14.4-2.5 26.4-4.3 26.8-4 .3.3-1.3 6.1-3.4 12.8l-4 12.3-9.5-.2c-7.6-.1-8.9.1-6.9 1 1.4.6 5.2 2.3 8.5 3.8 3.3 1.4 6.8 2.9 7.8 3.3 1.6.5 1.6.9-.8 5.5-3.6 7.2-3.3 9.5 1.6 12.6 2.9 1.9 4.4 2.3 5.3 1.6.7-.6 4.8-6.2 9.1-12.6 4.3-6.3 8.2-11.5 8.6-11.5.3 0 1.1.6 1.7 1.3 1.6 1.9-17.2 30.1-19.7 29.4-1.8-.4-31.2-18.7-52-32.2l-13.2-8.6.3-7.7.3-7.7 16-8.5c14.1-7.6 16-8.9 16.3-11.3l.3-2.7h-9.4c-10.5 0-12.1.8-13.3 6.8-.4 1.9-1.8 4.1-3.5 5.2l-2.8 2-.6-4.3c-.8-5.1-.3-29.3.6-30.2.4-.3 2.8.3 5.5 1.3 4.8 1.8 4.9 1.9 4.6 5.6-.2 2.2.2 5.2.9 6.7l1.1 2.9h18.3c14.6 0 18.4.3 18.8 1.4.3.7.1 1.8-.4 2.3-.5.5-.7 1.7-.3 2.6.5 1.5 2.3 1.7 12 1.7 10.1 0 11.4-.2 12.3-1.9.8-1.4.4-2.8-1.9-6.3-2.9-4.4-13.6-15.2-19.9-20-2.3-1.7-3.2-3.1-2.8-4.2.4-.9 1.1-1.6 1.6-1.6s4.3 2.7 8.4 6zM117 131.3c0 .7-.9 6-1.9 11.8-1 5.7-1.7 11.9-1.4 13.6l.5 3.3h29.6l.5-2.9c.3-1.5-.3-7.7-1.4-13.6-2.5-14.2-2.6-13.5 2-13.5h3.9l11.3 30.5 11.4 30.5h15.6c18 0 16.2.9 24.8-12.3 2.8-4.2 5.6-7.7 6.1-7.7 5.4 0-3.8 15.1-17.5 28.5-13.1 13-24.3 19.8-25.3 15.4-.2-1 1.8-2.8 5.5-5.2 7.3-4.4 14.3-10.5 14.3-12.1 0-2.1-9.8-2.3-68-2.1-67.8.3-62 .1-62 2.5 0 2.1 7.1 8.2 14.6 12.6 6.4 3.8 5.7 8.1-.8 4.8-11.5-5.8-28.2-21.9-35.6-34.4-6-10.1-4-14.4 2.2-4.9 1.6 2.4 4.7 6.8 6.8 9.7l3.9 5.3 15.2-.3 15.2-.3 11.4-30.3 11.4-30.2h3.8c2.6 0 3.9.5 3.9 1.3z"/><path d="M112.4 167.4c-.3 1.3-.4 3.7-.2 5.2l.3 2.9h32.8l.9-2.6c.5-1.6.5-3.7-.1-5.2L145 165h-32l-.6 2.4zM110.1 182.4c-.7.8-1.5 3-1.8 5l-.6 3.6h21.2c23.5 0 22.5.3 20-6.9l-1.1-3.1h-18.3c-14.5 0-18.5.3-19.4 1.4z"/></svg>