<?xml version="1.0" encoding="UTF-8" standalone="no"?>
<svg
   xmlns:dc="http://purl.org/dc/elements/1.1/"
   xmlns:cc="http://creativecommons.org/ns#"
   xmlns:rdf="http://www.w3.org/1999/02/22-rdf-syntax-ns#"
   xmlns:svg="http://www.w3.org/2000/svg"
   xmlns="http://www.w3.org/2000/svg"
   id="svg4901"
   version="1.1"
   viewBox="0 0 254.56981 24.732306"
   height="24.732306mm"
   width="254.56981mm">
  <defs
     id="defs4895" />
  <metadata
     id="metadata4898">
    <rdf:RDF>
      <cc:Work
         rdf:about="">
        <dc:format>image/svg+xml</dc:format>
        <dc:type
           rdf:resource="http://purl.org/dc/dcmitype/StillImage" />
        <dc:title></dc:title>
      </cc:Work>
    </rdf:RDF>
  </metadata>
  <g
     transform="translate(-5.6121417,-50.900929)"
     id="layer1">
    <path
       id="path64"
       style="fill:#ffffff;fill-opacity:1;fill-rule:nonzero;stroke:none;stroke-width:0.18608537"
       d="M 20.93311,57.16375 H 5.6121417 v 2.65413 H 20.93311 Z" />
    <g
       style="fill:#ffffff"
       transform="matrix(0.18608539,0,0,-0.18608539,14.587394,75.16271)"
       id="g66">
      <path
         id="path68"
         style="fill:#ffffff;fill-opacity:1;fill-rule:nonzero;stroke:none"
         d="m 0,0 v 69.857 l -13.743,7.599 V 0 Z" />
    </g>
    <g
       style="fill:#ffffff"
       transform="matrix(0.18608539,0,0,-0.18608539,32.802138,72.94295)"
       id="g70">
      <path
         id="path72"
         style="fill:#ffffff;fill-opacity:1;fill-rule:nonzero;stroke:none"
         d="m 0,0 c -20.228,0 -38.25,15.299 -38.25,36.174 0,21.783 16.597,37.212 38.119,37.212 20.616,0 38.12,-15.04 38.12,-36.304 C 37.989,16.077 20.745,0 0,0 m 51.992,36.304 c 0,28.914 -23.339,51.344 -51.992,51.344 -27.748,0 -52.123,-21.264 -52.123,-49.788 0,-29.172 22.69,-51.993 51.992,-51.993 28.006,0 52.123,21.912 52.123,50.437" />
    </g>
    <g
       style="fill:#ffffff"
       transform="matrix(0.18608539,0,0,-0.18608539,62.621241,75.16271)"
       id="g74">
      <path
         id="path76"
         style="fill:#ffffff;fill-opacity:1;fill-rule:nonzero;stroke:none"
         d="M 0,0 V 96.725 H -14.263 L -14.003,0 Z" />
    </g>
    <g
       style="fill:#ffffff"
       transform="matrix(0.18608539,0,0,-0.18608539,57.549504,68.55095)"
       id="g78">
      <path
         id="path80"
         style="fill:#ffffff;fill-opacity:1;fill-rule:nonzero;stroke:none"
         d="m 0,0 -49.249,58.962 h -18.147 l 11.198,-13.611 v -83.086 h 13.77 V 28.76 l 42.423,-51.208 z" />
    </g>
    <g
       style="fill:#ffffff"
       transform="matrix(0.18608539,0,0,-0.18608539,32.705467,64.57346)"
       id="g82">
      <path
         id="path84"
         style="fill:#ffffff;fill-opacity:1;fill-rule:nonzero;stroke:none"
         d="m 0,0 c -4.148,0 -7.649,-3.371 -7.649,-7.649 0,-4.149 3.501,-7.521 7.649,-7.521 4.149,0 7.65,3.372 7.65,7.521 C 7.65,-3.371 4.149,0 0,0" />
    </g>
    <g
       style="fill:#ffffff"
       transform="matrix(0.18608539,0,0,-0.18608539,88.965569,62.30283)"
       id="g86">
      <path
         id="path88"
         style="fill:#ffffff;fill-opacity:1;fill-rule:nonzero;stroke:none"
         d="m 0,0 c 0,17.244 -11.15,27.617 -28.265,27.617 h -49.658 v -96.724 h 14.132 v 37.212 14.262 31.118 h 35.526 c 9.335,0 14.263,-3.76 14.263,-13.485 0,-9.335 -5.058,-13.744 -14.263,-13.744 H -54.49 l 9.11,-14.261 h 17.115 C -11.15,-28.005 0,-17.115 0,0" />
    </g>
    <g
       style="fill:#ffffff"
       transform="matrix(0.18608539,0,0,-0.18608539,97.582577,50.93889)"
       id="g90">
      <path
         id="path92"
         style="fill:#ffffff;fill-opacity:1;fill-rule:nonzero;stroke:none"
         d="M 0,0 -19.425,0.204 0.181,-21.884 h 19.244 z" />
    </g>
    <g
       style="fill:#ffffff"
       transform="matrix(0.18608539,0,0,-0.18608539,106.55265,72.5328)"
       id="g94">
      <path
         id="path96"
         style="fill:#ffffff;fill-opacity:1;fill-rule:nonzero;stroke:none"
         d="m 0,0 h -59.643 v 68.329 h 53.938 v 14.263 h -68.07 V -14.133 H 0 Z" />
    </g>
    <g
       style="fill:#ffffff"
       transform="matrix(0.18608539,0,0,-0.18608539,103.81662,67.24889)"
       id="g98">
      <path
         id="path100"
         style="fill:#ffffff;fill-opacity:1;fill-rule:nonzero;stroke:none"
         d="M 0,0 V 14.392 H -35.263 L -27.112,0 Z" />
    </g>
    <g
       style="fill:#ffffff"
       transform="matrix(0.18608539,0,0,-0.18608539,142.18165,57.16367)"
       id="g102">
      <path
         id="path104"
         style="fill:#ffffff;fill-opacity:1;fill-rule:nonzero;stroke:none"
         d="M 0,0 H -68.07 V -96.725 H 5.704 v 14.133 h -59.642 v 68.329 H 0 Z" />
    </g>
    <g
       style="fill:#ffffff"
       transform="matrix(0.18608539,0,0,-0.18608539,140.50725,67.24889)"
       id="g106">
      <path
         id="path108"
         style="fill:#ffffff;fill-opacity:1;fill-rule:nonzero;stroke:none"
         d="M 0,0 V 14.392 H -35.263 L -27.112,0 Z" />
    </g>
    <g
       style="fill:#ffffff"
       transform="matrix(0.18608539,0,0,-0.18608539,125.9008,62.47165)"
       id="g110">
      <path
         id="path112"
         style="fill:#ffffff;fill-opacity:1;fill-rule:nonzero;stroke:none"
         d="M 0,0 C 0,18.282 -12.835,28.524 -30.469,28.524 H -81.295 V -68.2 h 14.133 v 36.304 14.132 32.156 h 36.693 c 9.205,0 16.466,-3.501 16.466,-13.615 0,-10.372 -6.741,-14.78 -16.466,-14.78 h -28.487 l 10.074,-14.133 h 11.281 L -18.435,-68.2 h 15.749 l -19.615,40.583 C -8.299,-24.117 0,-14.651 0,0" />
    </g>
    <g
       style="fill:#ffffff"
       transform="matrix(0.18608539,0,0,-0.18608539,169.66463,57.223806)"
       id="g114">
      <path
         id="path116"
         style="fill:#ffffff;fill-opacity:1;fill-rule:nonzero;stroke:none"
         d="m 0,0 h -40.841 l 6.223,-14.263 H 0 Z" />
    </g>
    <g
       style="fill:#ffffff"
       transform="matrix(0.18608539,0,0,-0.18608539,161.64243,73.027256)"
       id="g118">
      <path
         id="path120"
         style="fill:#ffffff;fill-opacity:1;fill-rule:nonzero;stroke:none"
         d="m 0,0 c -17.764,0 -25.932,9.854 -25.932,9.854 l -7.131,-12.448 c 8.168,-7.131 21.524,-11.41 32.933,-11.41 16.466,0 37.731,10.632 37.731,40.453 V 57.104 L 23.599,65.206 V 26.839 C 23.599,26.839 23.727,0 0,0" />
    </g>
    <g
       style="fill:#ffffff"
       transform="matrix(0.18608539,0,0,-0.18608539,188.69967,72.532796)"
       id="g122">
      <path
         id="path124"
         style="fill:#ffffff;fill-opacity:1;fill-rule:nonzero;stroke:none"
         d="m 0,0 h -59.642 v 68.329 h 53.938 v 14.263 h -68.07 V -14.133 H 0 Z" />
    </g>
    <g
       style="fill:#ffffff"
       transform="matrix(0.18608539,0,0,-0.18608539,185.96383,67.248806)"
       id="g126">
      <path
         id="path128"
         style="fill:#ffffff;fill-opacity:1;fill-rule:nonzero;stroke:none"
         d="M 0,0 V 14.392 H -35.263 L -27.112,0 Z" />
    </g>
    <g
       style="fill:#ffffff"
       transform="matrix(0.18608539,0,0,-0.18608539,205.53785,64.389916)"
       id="g130">
      <path
         id="path132"
         style="fill:#ffffff;fill-opacity:1;fill-rule:nonzero;stroke:none"
         d="m 0,0 c -16.466,0 -20.616,5.317 -20.616,11.151 0,8.428 9.075,15.948 19.967,15.948 12.318,0 19.709,-2.982 30.082,-11.41 l 8.815,10.373 C 26.709,37.213 14.002,41.361 -0.649,41.361 c -20.745,0 -35.656,-14.651 -35.656,-30.34 0,-16.465 12.576,-25.023 35.656,-25.023 14.003,0 28.654,0 28.654,-14.781 0,-12.058 -14.391,-17.504 -28.654,-17.504 -15.17,0 -24.634,9.076 -29.691,15.17 l -10.113,-9.465 c 9.724,-12.577 25.022,-19.838 39.804,-19.838 24.505,0 43.176,12.189 43.176,31.637 C 42.527,-10.502 33.841,0 0,0" />
    </g>
    <g
       style="fill:#ffffff"
       transform="matrix(0.18608539,0,0,-0.18608539,240.88044,60.251166)"
       id="g134">
      <path
         id="path136"
         style="fill:#ffffff;fill-opacity:1;fill-rule:nonzero;stroke:none"
         d="M 0,0 -13.872,16.269 V -80.456 H 0 Z" />
    </g>
    <g
       style="fill:#ffffff"
       transform="matrix(0.18608539,0,0,-0.18608539,252.14734,73.003286)"
       id="g138">
      <path
         id="path140"
         style="fill:#ffffff;fill-opacity:1;fill-rule:nonzero;stroke:none"
         d="M 0,0 C -15.17,0 -24.634,9.076 -29.691,15.17 L -39.804,5.705 C -30.08,-6.872 -14.781,-14.133 0,-14.133 c 24.506,0 43.177,12.189 43.177,31.637 0,18.281 -8.687,28.783 -42.528,28.783 -16.466,0 -20.616,5.317 -20.616,11.151 0,8.428 9.075,15.948 19.967,15.948 12.318,0 19.709,-2.982 30.082,-11.409 L 38.896,72.35 C 27.358,83.5 14.651,87.648 0,87.648 c -20.744,0 -35.655,-14.651 -35.655,-30.339 0,-16.466 12.576,-25.024 35.655,-25.024 14.003,0 28.654,0 28.654,-14.781 C 28.654,5.446 14.263,0 0,0" />
    </g>
    <g
       style="fill:#ffffff"
       transform="matrix(0.18608539,0,0,-0.18608539,217.06879,57.223806)"
       id="g142">
      <path
         id="path144"
         style="fill:#ffffff;fill-opacity:1;fill-rule:nonzero;stroke:none"
         d="m 0,0 v -59.124 c 0,-25.154 16.077,-39.806 43.435,-39.806 7.2,0 13.593,1.041 19.143,2.995 v 15.834 c -4.83,-3.079 -11.257,-4.696 -19.143,-4.696 -18.799,0 -29.431,9.076 -29.431,25.673 v 44.861 z" />
    </g>
    <g
       style="fill:#ffffff"
       transform="matrix(0.18608539,0,0,-0.18608539,230.62757,68.247916)"
       id="g146">
      <path
         id="path148"
         style="fill:#ffffff;fill-opacity:1;fill-rule:nonzero;stroke:none"
         d="m 0,0 v -31.295 c 9.054,6.782 14.007,17.478 14.007,31.413 V 59.242 H 0.005 V 0.118 C 0.005,0.077 0,0.04 0,0" />
    </g>
  </g>
</svg>
