<?xml version="1.0" encoding="UTF-8" standalone="no"?>
<svg
   xmlns:dc="http://purl.org/dc/elements/1.1/"
   xmlns:cc="http://creativecommons.org/ns#"
   xmlns:rdf="http://www.w3.org/1999/02/22-rdf-syntax-ns#"
   xmlns:svg="http://www.w3.org/2000/svg"
   xmlns="http://www.w3.org/2000/svg"
   id="svg26"
   version="1.1"
   viewBox="0 0 431 358.99">
  <metadata
     id="metadata30">
    <rdf:RDF>
      <cc:Work
         rdf:about="">
        <dc:format>image/svg+xml</dc:format>
        <dc:type
           rdf:resource="http://purl.org/dc/dcmitype/StillImage" />
        <dc:title>Fichier 8</dc:title>
      </cc:Work>
    </rdf:RDF>
  </metadata>
  <defs
     id="defs4">
    <style
       id="style2">.cls-1{fill:none;stroke:#000;stroke-miterlimit:10;stroke-width:3px;}.cls-2{font-size:110px;font-family:TitilliumWeb-SemiBold, Titillium Web;font-weight:700;}.cls-3{font-size:44px;font-family:Elianto-Regular, Elianto;}</style>
  </defs>
  <title
     id="title6">Fichier 8</title>
  <g
     data-name="Calque 2"
     id="Calque_2">
    <g
       id="EXPLICATION">
      <line
         id="line8"
         y2="39.02"
         x2="217.5"
         y1="0.02"
         x1="218"
         class="cls-1" />
      <g
         id="text10"
         style="font-weight:700;font-size:110px;font-family:TitilliumWeb-SemiBold, 'Titillium Web'"
         transform="translate(193.3 164.49)"
         aria-label="?">
        <path
           id="path4508"
           style="font-weight:700;font-size:110px;font-family:TitilliumWeb-SemiBold, 'Titillium Web'"
           d="m 23.32,-76.12 q 10.56,0 15.84,4.29 5.39,4.29 5.39,12.87 0,8.58 -1.76,12.54 -1.65,3.85 -7.15,8.03 -5.5,4.07 -6.93,6.27 -1.43,2.2 -1.43,4.84 v 3.41 H 15.51 q -3.41,-3.74 -3.41,-10.01 0,-3.96 6.93,-9.57 7.04,-5.61 8.58,-7.7 1.65,-2.2 1.65,-5.28 0,-6.49 -9.35,-6.49 -6.6,0 -13.53,1.32 L 4.07,-61.16 3.3,-72.27 q 9.46,-3.85 20.02,-3.85 z M 13.09,0 V -17.71 H 28.93 V 0 Z" />
      </g>
      <polygon
         id="polygon12"
         points="43 223.97 43 213.57 33 221.56 23 229.55 33 237.53 43 245.52 43 235.07 94 235.07 94 223.97 43 223.97" />
      <polygon
         id="polygon14"
         points="389 223.97 389 213.57 399 221.56 409 229.55 399 237.53 389 245.52 389 235.07 338 235.07 338 223.97 389 223.97" />
      <g
         id="text16"
         style="font-size:44px;font-family:Elianto-Regular, Elianto"
         transform="translate(20.05 187.53)"
         aria-label="OUI">
        <path
           id="path4511"
           style="font-size:44px;font-family:Elianto-Regular, Elianto"
           d="m 18.348,-32.252 q 3.344,0 6.248,1.276 2.948,1.276 5.104,3.476 2.2,2.156 3.476,5.104 1.276,2.948 1.276,6.292 0,3.344 -1.276,6.292 Q 31.9,-6.908 29.7,-4.708 27.544,-2.552 24.596,-1.276 21.692,0 18.348,0 15.004,0 12.056,-1.276 9.152,-2.552 6.952,-4.708 4.752,-6.908 3.476,-9.812 2.2,-12.76 2.2,-16.104 q 0,-3.344 1.276,-6.292 1.276,-2.948 3.476,-5.104 2.2,-2.2 5.104,-3.476 2.948,-1.276 6.292,-1.276 z m 10.604,16.148 q 0,-2.2 -0.836,-4.136 -0.836,-1.936 -2.288,-3.344 -1.408,-1.452 -3.344,-2.288 -1.936,-0.836 -4.136,-0.836 -2.2,0 -4.136,0.836 -1.936,0.836 -3.388,2.288 -1.408,1.408 -2.244,3.344 -0.836,1.936 -0.836,4.136 0,2.2 0.836,4.136 0.836,1.936 2.244,3.388 1.452,1.408 3.388,2.244 1.936,0.836 4.136,0.836 2.2,0 4.136,-0.836 1.936,-0.836 3.344,-2.244 1.452,-1.452 2.288,-3.388 0.836,-1.936 0.836,-4.136 z m -8.008,0 q 0,1.056 -0.792,1.804 -0.748,0.748 -1.804,0.748 -1.056,0 -1.848,-0.748 -0.748,-0.748 -0.748,-1.804 0,-1.1 0.748,-1.848 0.792,-0.748 1.848,-0.748 1.056,0 1.804,0.748 0.792,0.748 0.792,1.848 z" />
        <path
           id="path4513"
           style="font-size:44px;font-family:Elianto-Regular, Elianto"
           d="m 51.305375,0 q -6.204,0 -9.548,-3.256 -1.408,-1.408 -2.156,-3.256 -0.748,-1.892 -0.748,-4.048 v -21.692 h 5.412 v 21.692 q 0,5.192 7.04,5.192 3.476,0 5.28,-1.364 1.848,-1.364 1.848,-3.916 v -21.604 h 5.412 v 21.604 q 0,1.848 -0.66,3.74 -0.66,1.892 -2.156,3.432 -1.496,1.54 -3.872,2.508 -2.376,0.968 -5.852,0.968 z" />
        <path
           id="path4515"
           style="font-size:44px;font-family:Elianto-Regular, Elianto"
           d="M 68.244,0 V -32.252 H 73.7 V 0 h -5.456 z" />
      </g>
      <g
         id="text18"
         style="font-size:44px;font-family:Elianto-Regular, Elianto"
         transform="translate(326.27 187.53)"
         aria-label="NON">
        <path
           id="path4518"
           style="font-size:44px;font-family:Elianto-Regular, Elianto"
           d="m 19.844,-13.992 v 7.348 L 7.128,-19.8 V 0 H 2.244 v -32.252 z m 1.54,-18.26 h 4.884 V 0 l -4.884,-5.06 v -7.392 0 z" />
        <path
           id="path4520"
           style="font-size:44px;font-family:Elianto-Regular, Elianto"
           d="m 46.793312,-32.252 q 3.344,0 6.248001,1.276 2.947999,1.276 5.104,3.476 2.199999,2.156 3.476,5.104 1.275999,2.948 1.275999,6.292 0,3.344 -1.275999,6.292 -1.276001,2.904 -3.476,5.104 -2.156001,2.156 -5.104,3.432 Q 50.137312,0 46.793312,0 q -3.343999,0 -6.292,-1.276 -2.904,-1.276 -5.104,-3.432 -2.199999,-2.2 -3.476,-5.104 -1.276,-2.948 -1.276,-6.292 0,-3.344 1.276,-6.292 1.276001,-2.948 3.476,-5.104 2.2,-2.2 5.104,-3.476 2.948001,-1.276 6.292,-1.276 z m 10.604,16.148 q 0,-2.2 -0.836,-4.136 -0.836,-1.936 -2.287999,-3.344 -1.408,-1.452 -3.344,-2.288 -1.936,-0.836 -4.136001,-0.836 -2.2,0 -4.135999,0.836 -1.936,0.836 -3.388001,2.288 -1.408,1.408 -2.244,3.344 -0.836,1.936 -0.836,4.136 0,2.2 0.836,4.136 0.836,1.936 2.244,3.388 1.452001,1.408 3.388001,2.244 1.935999,0.836 4.135999,0.836 2.200001,0 4.136001,-0.836 1.936,-0.836 3.344,-2.244 1.451999,-1.452 2.287999,-3.388 0.836,-1.936 0.836,-4.136 z m -8.007999,0 q 0,1.056 -0.792001,1.804 -0.748,0.748 -1.804,0.748 -1.055999,0 -1.848,-0.748 -0.748,-0.748 -0.748,-1.804 0,-1.1 0.748,-1.848 0.792001,-0.748 1.848,-0.748 1.056,0 1.804,0.748 0.792001,0.748 0.792001,1.848 z" />
        <path
           id="path4522"
           style="font-size:44px;font-family:Elianto-Regular, Elianto"
           d="m 84.898687,-13.992 v 7.348 L 72.182687,-19.8 V 0 h -4.884 v -32.252 z m 1.54,-18.26 h 4.884 V 0 l -4.884,-5.06 v -7.392 0 z" />
      </g>
      <path
         id="path20"
         d="M239.2,359l-8.52-24.44c-2.44-2.16-18.11-16.05-21.63-20.27a30.64,30.64,0,0,1-4.88-8.27l-.65-1.6c-3.81-9.39-10.89-26.87-7.89-38.23a14.61,14.61,0,0,1,2.11-4.64,12.53,12.53,0,0,1,1.32-1.62,13.8,13.8,0,0,1,5.46-3.44l.12,0c1.33-.34,1.71.7,2.17,2l1,2.81,2.94,8.51L215,282.17c1,3,2,4.19,4.35,3.74L188.76,198a9.82,9.82,0,0,1-.55-4.17l0-.21a10.16,10.16,0,0,1,6.68-8.1c4.19-1.63,9.88-.92,12.48,4.51l8.3,17.7,15.22,32.47a16.75,16.75,0,0,1,9.21-4.11c4.89-.69,9.4.4,12,2.76A15.92,15.92,0,0,1,260.7,235c5-.7,9.58.62,11.94,3.25a15.54,15.54,0,0,1,9-4.24c5.68-.82,10.84,1,12.8,4.39h.12l3.94,11.31L308,277a31.61,31.61,0,0,1,1.12,16.73l-3,14.49,8.51,24.42-2.83,1-8.76-25.13.06-.47,3-14.89a28.6,28.6,0,0,0-1-15.14l-13.11-37.61c-.83-2.27-4.81-4.18-10-3.43-3.77.54-7,2.36-8.2,4.63l-1.58,3-1.15-3.14c-.83-2.27-4.81-4.18-10-3.45-3.41.49-6.42,2-7.86,4.05l-1.32,1.85-1.18-1.94c-1.21-2-5.11-3.6-10.23-2.87-4,.56-7.36,2.41-8.65,4.7l-.47.83-1.8-.14-.45-.89L213,209l-8.29-17.68c-1.78-3.71-5.65-4.18-8.68-3a7.18,7.18,0,0,0-4.78,5.64v.15a6.86,6.86,0,0,0,.39,2.9l31.56,90.66-1.48.68c-6.87,2.33-8.65-2.77-9.51-5.23-2.73-7.95-6.63-19.27-8-23.25a10.45,10.45,0,0,0-2.91,2.11,9.66,9.66,0,0,0-1,1.24,11.62,11.62,0,0,0-1.68,3.7c-2.75,10.39,4.36,27.92,7.77,36.34l.65,1.61a27.69,27.69,0,0,0,4.39,7.46c3.6,4.31,21.43,20,21.61,20.2l.29.26L242,358Z" />
      <path
         id="path22"
         d="M218,38a92.5,92.5,0,0,0-19.58,182.91l-.72-3.23a89.56,89.56,0,1,1,21.7,2.3l1.2,3A92.5,92.5,0,0,0,218,38Z" />
    </g>
  </g>
</svg>
